<?xml version="1.0" encoding="UTF-8" standalone="no"?>
<!DOCTYPE svg PUBLIC "-//W3C//DTD SVG 1.1//EN"
 "http://www.w3.org/Graphics/SVG/1.1/DTD/svg11.dtd">
<!-- Generated by graphviz version 2.50.0 (0)
 -->
<!-- Pages: 1 -->
<svg width="576pt" height="388pt"
 viewBox="0.00 0.00 576.00 388.04" xmlns="http://www.w3.org/2000/svg" xmlns:xlink="http://www.w3.org/1999/xlink">
<g id="graph0" class="graph" transform="scale(0.16 0.16) rotate(0) translate(14.4 2429.89)">
<!-- 43 -->
<g id="node1" class="node">
<title>43</title>
<ellipse fill="#101010" stroke="black" cx="2976.18" cy="-2123.95" rx="25" ry="25"/>
<text text-anchor="middle" x="2976.18" y="-2120.25" font-family="Times,serif" font-size="14.00">43</text>
</g>
<!-- 44 -->
<g id="node21" class="node">
<title>44</title>
<ellipse fill="#0097f1" stroke="black" cx="3078.67" cy="-2380.19" rx="42.5" ry="42.5"/>
<text text-anchor="middle" x="3078.67" y="-2376.49" font-family="Times,serif" font-size="14.00">44</text>
</g>
<!-- 43&#45;&gt;44 -->
<g id="edge54" class="edge">
<title>43&#45;&gt;44</title>
<path fill="none" stroke="#101010" stroke-width="5" d="M2981.51,-2148.19C2995.18,-2190.58 3029.95,-2278.76 3054.09,-2333.38"/>
<polygon fill="#101010" stroke="#101010" stroke-width="5" points="3050.25,-2335.49 3058.32,-2342.84 3058.23,-2331.92 3050.25,-2335.49"/>
</g>
<!-- 42 -->
<g id="node27" class="node">
<title>42</title>
<ellipse fill="#0097f1" stroke="black" cx="3155.55" cy="-1918.95" rx="46" ry="46"/>
<text text-anchor="middle" x="3155.55" y="-1915.25" font-family="Times,serif" font-size="14.00">42</text>
</g>
<!-- 43&#45;&gt;42 -->
<g id="edge27" class="edge">
<title>43&#45;&gt;42</title>
<path fill="none" stroke="#101010" stroke-width="5" d="M2995.48,-2108.08C3026.02,-2077.67 3085.47,-2010.49 3122.75,-1964.92"/>
<polygon fill="#101010" stroke="#101010" stroke-width="5" points="3126.3,-1967.48 3129.21,-1956.96 3119.51,-1961.96 3126.3,-1967.48"/>
</g>
<!-- 34 -->
<g id="node45" class="node">
<title>34</title>
<ellipse fill="#0097f1" stroke="black" cx="2668.68" cy="-2200.82" rx="68.5" ry="68.5"/>
<text text-anchor="middle" x="2668.68" y="-2197.12" font-family="Times,serif" font-size="14.00">34</text>
</g>
<!-- 43&#45;&gt;34 -->
<g id="edge55" class="edge">
<title>43&#45;&gt;34</title>
<path fill="none" stroke="#101010" stroke-width="5" d="M2951.38,-2126.2C2906.67,-2134.3 2810.97,-2157.51 2743.33,-2176.06"/>
<polygon fill="#101010" stroke="#101010" stroke-width="5" points="2742.04,-2171.88 2733.56,-2178.76 2744.37,-2180.31 2742.04,-2171.88"/>
</g>
<!-- 3 -->
<g id="node2" class="node">
<title>3</title>
<ellipse fill="#101010" stroke="black" cx="1592.46" cy="-1098.97" rx="18.27" ry="18.27"/>
<text text-anchor="middle" x="1592.46" y="-1095.27" font-family="Times,serif" font-size="14.00">3</text>
</g>
<!-- 2 -->
<g id="node23" class="node">
<title>2</title>
<ellipse fill="#0097f1" stroke="black" cx="1541.21" cy="-791.48" rx="51" ry="51"/>
<text text-anchor="middle" x="1541.21" y="-787.78" font-family="Times,serif" font-size="14.00">2</text>
</g>
<!-- 3&#45;&gt;2 -->
<g id="edge23" class="edge">
<title>3&#45;&gt;2</title>
<path fill="none" stroke="#101010" stroke-width="5" d="M1592.81,-1080.56C1589.09,-1036.16 1570.73,-921.71 1556.67,-850.86"/>
<polygon fill="#101010" stroke="#101010" stroke-width="5" points="1560.9,-849.67 1554.63,-840.74 1552.32,-851.4 1560.9,-849.67"/>
</g>
<!-- 4 -->
<g id="node26" class="node">
<title>4</title>
<ellipse fill="#0097f1" stroke="black" cx="1464.34" cy="-1201.47" rx="23.5" ry="23.5"/>
<text text-anchor="middle" x="1464.34" y="-1197.77" font-family="Times,serif" font-size="14.00">4</text>
</g>
<!-- 3&#45;&gt;4 -->
<g id="edge21" class="edge">
<title>3&#45;&gt;4</title>
<path fill="none" stroke="#101010" stroke-width="5" d="M1575.76,-1106.7C1553.02,-1121.47 1512.48,-1153.39 1487.03,-1176.19"/>
<polygon fill="#101010" stroke="#101010" stroke-width="5" points="1483.75,-1173.26 1479.34,-1183.24 1489.67,-1179.71 1483.75,-1173.26"/>
</g>
<!-- 1 -->
<g id="node31" class="node">
<title>1</title>
<ellipse fill="#0097f1" stroke="black" cx="1720.58" cy="-996.48" rx="25.5" ry="25.5"/>
<text text-anchor="middle" x="1720.58" y="-992.78" font-family="Times,serif" font-size="14.00">1</text>
</g>
<!-- 3&#45;&gt;1 -->
<g id="edge22" class="edge">
<title>3&#45;&gt;1</title>
<path fill="none" stroke="#101010" stroke-width="5" d="M1609.17,-1091.25C1631.5,-1076.75 1670.99,-1045.7 1696.51,-1023"/>
<polygon fill="#101010" stroke="#101010" stroke-width="5" points="1699.48,-1026.21 1703.94,-1016.25 1693.6,-1019.73 1699.48,-1026.21"/>
</g>
<!-- 7 -->
<g id="node3" class="node">
<title>7</title>
<ellipse fill="#101010" stroke="black" cx="1156.85" cy="-740.23" rx="18.27" ry="18.27"/>
<text text-anchor="middle" x="1156.85" y="-736.53" font-family="Times,serif" font-size="14.00">7</text>
</g>
<!-- 5 -->
<g id="node12" class="node">
<title>5</title>
<ellipse fill="#0097f1" stroke="black" cx="1131.22" cy="-483.99" rx="48" ry="48"/>
<text text-anchor="middle" x="1131.22" y="-480.29" font-family="Times,serif" font-size="14.00">5</text>
</g>
<!-- 7&#45;&gt;5 -->
<g id="edge28" class="edge">
<title>7&#45;&gt;5</title>
<path fill="none" stroke="#101010" stroke-width="5" d="M1158.69,-721.85C1158.21,-684.61 1150.34,-598.93 1142.73,-541.23"/>
<polygon fill="#101010" stroke="#101010" stroke-width="5" points="1147.04,-540.48 1141.36,-531.16 1138.37,-541.66 1147.04,-540.48"/>
</g>
<!-- 6 -->
<g id="node16" class="node">
<title>6</title>
<ellipse fill="#0097f1" stroke="black" cx="1361.84" cy="-688.98" rx="31.5" ry="31.5"/>
<text text-anchor="middle" x="1361.84" y="-685.28" font-family="Times,serif" font-size="14.00">6</text>
</g>
<!-- 7&#45;&gt;6 -->
<g id="edge29" class="edge">
<title>7&#45;&gt;6</title>
<path fill="none" stroke="#101010" stroke-width="5" d="M1175.29,-739.72C1208.47,-734.62 1278.83,-717.55 1323.03,-704.34"/>
<polygon fill="#101010" stroke="#101010" stroke-width="5" points="1324.57,-708.45 1332.85,-701.34 1322.01,-700.08 1324.57,-708.45"/>
</g>
<!-- 8 -->
<g id="node28" class="node">
<title>8</title>
<ellipse fill="#0097f1" stroke="black" cx="1105.6" cy="-868.35" rx="18" ry="18"/>
<text text-anchor="middle" x="1105.6" y="-864.65" font-family="Times,serif" font-size="14.00">8</text>
</g>
<!-- 7&#45;&gt;8 -->
<g id="edge18" class="edge">
<title>7&#45;&gt;8</title>
<path fill="none" stroke="#101010" stroke-width="5" d="M1145.75,-755.23C1134.82,-776.14 1119.25,-814.34 1110.76,-840.54"/>
<polygon fill="#101010" stroke="#101010" stroke-width="5" points="1106.53,-839.42 1107.79,-850.27 1114.9,-841.98 1106.53,-839.42"/>
</g>
<!-- 13 -->
<g id="node4" class="node">
<title>13</title>
<ellipse fill="#101010" stroke="black" cx="977.48" cy="-1098.97" rx="25" ry="25"/>
<text text-anchor="middle" x="977.48" y="-1095.27" font-family="Times,serif" font-size="14.00">13</text>
</g>
<!-- 9 -->
<g id="node29" class="node">
<title>9</title>
<ellipse fill="#0097f1" stroke="black" cx="1028.73" cy="-1047.73" rx="18.5" ry="18.5"/>
<text text-anchor="middle" x="1028.73" y="-1044.03" font-family="Times,serif" font-size="14.00">9</text>
</g>
<!-- 13&#45;&gt;9 -->
<g id="edge34" class="edge">
<title>13&#45;&gt;9</title>
<path fill="none" stroke="#101010" stroke-width="5" d="M999.07,-1086.44C1004.01,-1082.05 1009.14,-1077 1013.74,-1072.02"/>
<polygon fill="#101010" stroke="#101010" stroke-width="5" points="1017.16,-1074.75 1020.43,-1064.34 1010.57,-1069 1017.16,-1074.75"/>
</g>
<!-- 12 -->
<g id="node33" class="node">
<title>12</title>
<ellipse fill="#0097f1" stroke="black" cx="772.48" cy="-893.98" rx="48.5" ry="48.5"/>
<text text-anchor="middle" x="772.48" y="-890.28" font-family="Times,serif" font-size="14.00">12</text>
</g>
<!-- 13&#45;&gt;12 -->
<g id="edge33" class="edge">
<title>13&#45;&gt;12</title>
<path fill="none" stroke="#101010" stroke-width="5" d="M962.81,-1078.68C932.88,-1044.42 864.09,-974.89 817.91,-931.55"/>
<polygon fill="#101010" stroke="#101010" stroke-width="5" points="820.71,-928.19 810.41,-924.57 814.74,-934.59 820.71,-928.19"/>
</g>
<!-- 14 -->
<g id="node34" class="node">
<title>14</title>
<ellipse fill="#0097f1" stroke="black" cx="951.85" cy="-1201.47" rx="25" ry="25"/>
<text text-anchor="middle" x="951.85" y="-1197.77" font-family="Times,serif" font-size="14.00">14</text>
</g>
<!-- 13&#45;&gt;14 -->
<g id="edge87" class="edge">
<title>13&#45;&gt;14</title>
<path fill="none" stroke="#e05050" stroke-width="5" d="M965.99,-1121.09C961.58,-1134.37 957.08,-1151.57 954,-1166.64"/>
<polygon fill="#e05050" stroke="#e05050" stroke-width="5" points="949.66,-1166.03 952.1,-1176.67 958.26,-1167.65 949.66,-1166.03"/>
</g>
<!-- 17 -->
<g id="node5" class="node">
<title>17</title>
<ellipse fill="#101010" stroke="black" cx="362.49" cy="-1098.97" rx="25" ry="25"/>
<text text-anchor="middle" x="362.49" y="-1095.27" font-family="Times,serif" font-size="14.00">17</text>
</g>
<!-- 15 -->
<g id="node13" class="node">
<title>15</title>
<ellipse fill="#0097f1" stroke="black" cx="259.99" cy="-945.23" rx="34" ry="34"/>
<text text-anchor="middle" x="259.99" y="-941.53" font-family="Times,serif" font-size="14.00">15</text>
</g>
<!-- 17&#45;&gt;15 -->
<g id="edge5" class="edge">
<title>17&#45;&gt;15</title>
<path fill="none" stroke="#101010" stroke-width="5" d="M352.84,-1075.92C338.28,-1050.08 310.71,-1008.07 289.3,-978.64"/>
<polygon fill="#101010" stroke="#101010" stroke-width="5" points="292.62,-975.77 283.16,-970.33 285.58,-980.97 292.62,-975.77"/>
</g>
<!-- 16 -->
<g id="node14" class="node">
<title>16</title>
<ellipse fill="#0097f1" stroke="black" cx="55" cy="-1252.72" rx="55" ry="55"/>
<text text-anchor="middle" x="55" y="-1249.02" font-family="Times,serif" font-size="14.00">16</text>
</g>
<!-- 17&#45;&gt;16 -->
<g id="edge6" class="edge">
<title>17&#45;&gt;16</title>
<path fill="none" stroke="#101010" stroke-width="5" d="M338.72,-1106.72C290.17,-1127.23 178.57,-1182.38 110.7,-1218.81"/>
<polygon fill="#101010" stroke="#101010" stroke-width="5" points="108.55,-1215 101.83,-1223.6 112.71,-1222.7 108.55,-1215"/>
</g>
<!-- 18 -->
<g id="node35" class="node">
<title>18</title>
<ellipse fill="#0097f1" stroke="black" cx="464.99" cy="-1201.47" rx="21.84" ry="21.84"/>
<text text-anchor="middle" x="464.99" y="-1197.77" font-family="Times,serif" font-size="14.00">18</text>
</g>
<!-- 17&#45;&gt;18 -->
<g id="edge4" class="edge">
<title>17&#45;&gt;18</title>
<path fill="none" stroke="#101010" stroke-width="5" d="M376.19,-1120.05C392.21,-1138.72 418.81,-1165.54 438.79,-1183.3"/>
<polygon fill="#101010" stroke="#101010" stroke-width="5" points="435.93,-1186.61 446.35,-1189.85 441.66,-1179.99 435.93,-1186.61"/>
</g>
<!-- 22 -->
<g id="node6" class="node">
<title>22</title>
<ellipse fill="#101010" stroke="black" cx="900.6" cy="-1303.97" rx="25" ry="25"/>
<text text-anchor="middle" x="900.6" y="-1300.27" font-family="Times,serif" font-size="14.00">22</text>
</g>
<!-- 22&#45;&gt;14 -->
<g id="edge11" class="edge">
<title>22&#45;&gt;14</title>
<path fill="none" stroke="#101010" stroke-width="5" d="M916.51,-1284.75C924.89,-1270.77 934.75,-1251.51 942.06,-1235.02"/>
<polygon fill="#101010" stroke="#101010" stroke-width="5" points="946.14,-1236.61 946.04,-1225.7 938.09,-1233.18 946.14,-1236.61"/>
</g>
<!-- 21 -->
<g id="node38" class="node">
<title>21</title>
<ellipse fill="#0097f1" stroke="black" cx="808.36" cy="-1303.97" rx="25" ry="25"/>
<text text-anchor="middle" x="808.36" y="-1300.27" font-family="Times,serif" font-size="14.00">21</text>
</g>
<!-- 22&#45;&gt;21 -->
<g id="edge1" class="edge">
<title>22&#45;&gt;21</title>
<path fill="none" stroke="#101010" stroke-width="5" d="M876.37,-1297.95C866.09,-1297.21 853.93,-1297.03 842.75,-1297.42"/>
<polygon fill="#101010" stroke="#101010" stroke-width="5" points="842.19,-1293.07 832.43,-1297.96 842.65,-1301.8 842.19,-1293.07"/>
</g>
<!-- 23 -->
<g id="node39" class="node">
<title>23</title>
<ellipse fill="#0097f1" stroke="black" cx="977.48" cy="-1355.22" rx="25" ry="25"/>
<text text-anchor="middle" x="977.48" y="-1351.52" font-family="Times,serif" font-size="14.00">23</text>
</g>
<!-- 22&#45;&gt;23 -->
<g id="edge9" class="edge">
<title>22&#45;&gt;23</title>
<path fill="none" stroke="#101010" stroke-width="5" d="M917.46,-1322.45C925.7,-1328.83 935.86,-1335.81 945.47,-1341.74"/>
<polygon fill="#101010" stroke="#101010" stroke-width="5" points="943.25,-1345.51 954.08,-1346.84 947.71,-1337.98 943.25,-1345.51"/>
</g>
<!-- 25 -->
<g id="node7" class="node">
<title>25</title>
<ellipse fill="#101010" stroke="black" cx="1079.97" cy="-1457.72" rx="25" ry="25"/>
<text text-anchor="middle" x="1079.97" y="-1454.02" font-family="Times,serif" font-size="14.00">25</text>
</g>
<!-- 26 -->
<g id="node18" class="node">
<title>26</title>
<ellipse fill="#0097f1" stroke="black" cx="1079.97" cy="-1611.46" rx="27.5" ry="27.5"/>
<text text-anchor="middle" x="1079.97" y="-1607.76" font-family="Times,serif" font-size="14.00">26</text>
</g>
<!-- 25&#45;&gt;26 -->
<g id="edge14" class="edge">
<title>25&#45;&gt;26</title>
<path fill="none" stroke="#101010" stroke-width="5" d="M1074.89,-1482.08C1072.97,-1506.89 1072.71,-1545.68 1074.1,-1574.32"/>
<polygon fill="#101010" stroke="#101010" stroke-width="5" points="1069.74,-1574.64 1074.69,-1584.37 1078.47,-1574.13 1069.74,-1574.64"/>
</g>
<!-- 25&#45;&gt;23 -->
<g id="edge70" class="edge">
<title>25&#45;&gt;23</title>
<path fill="none" stroke="#e05050" stroke-width="5" d="M1066.28,-1436.64C1050.82,-1418.62 1025.5,-1393.01 1005.79,-1375.28"/>
<polygon fill="#e05050" stroke="#e05050" stroke-width="5" points="1008.68,-1371.99 998.28,-1368.68 1002.9,-1378.57 1008.68,-1371.99"/>
</g>
<!-- 24 -->
<g id="node40" class="node">
<title>24</title>
<ellipse fill="#0097f1" stroke="black" cx="1259.34" cy="-1355.22" rx="24.5" ry="24.5"/>
<text text-anchor="middle" x="1259.34" y="-1351.52" font-family="Times,serif" font-size="14.00">24</text>
</g>
<!-- 25&#45;&gt;24 -->
<g id="edge15" class="edge">
<title>25&#45;&gt;24</title>
<path fill="none" stroke="#101010" stroke-width="5" d="M1103.51,-1449.51C1136.63,-1433.69 1196.71,-1399.6 1231.83,-1376.92"/>
<polygon fill="#101010" stroke="#101010" stroke-width="5" points="1234.67,-1380.29 1240.62,-1371.14 1229.86,-1372.98 1234.67,-1380.29"/>
</g>
<!-- 28 -->
<g id="node8" class="node">
<title>28</title>
<ellipse fill="#101010" stroke="black" cx="1079.97" cy="-1739.58" rx="25" ry="25"/>
<text text-anchor="middle" x="1079.97" y="-1735.88" font-family="Times,serif" font-size="14.00">28</text>
</g>
<!-- 28&#45;&gt;26 -->
<g id="edge56" class="edge">
<title>28&#45;&gt;26</title>
<path fill="none" stroke="#101010" stroke-width="5" d="M1085.41,-1715.18C1086.86,-1696.34 1087.11,-1669.95 1086.16,-1648.5"/>
<polygon fill="#101010" stroke="#101010" stroke-width="5" points="1090.52,-1648.17 1085.6,-1638.43 1081.79,-1648.66 1090.52,-1648.17"/>
</g>
<!-- 27 -->
<g id="node19" class="node">
<title>27</title>
<ellipse fill="#0097f1" stroke="black" cx="721.23" cy="-1893.33" rx="89.5" ry="89.5"/>
<text text-anchor="middle" x="721.23" y="-1889.63" font-family="Times,serif" font-size="14.00">27</text>
</g>
<!-- 28&#45;&gt;27 -->
<g id="edge53" class="edge">
<title>28&#45;&gt;27</title>
<path fill="none" stroke="#101010" stroke-width="5" d="M1055.88,-1746.1C1006.56,-1763.73 891.98,-1811.94 810.66,-1848.5"/>
<polygon fill="#101010" stroke="#101010" stroke-width="5" points="808.73,-1844.57 801.42,-1852.67 812.33,-1852.55 808.73,-1844.57"/>
</g>
<!-- 29 -->
<g id="node41" class="node">
<title>29</title>
<ellipse fill="#0097f1" stroke="black" cx="1182.47" cy="-1970.2" rx="34" ry="34"/>
<text text-anchor="middle" x="1182.47" y="-1966.5" font-family="Times,serif" font-size="14.00">29</text>
</g>
<!-- 28&#45;&gt;29 -->
<g id="edge69" class="edge">
<title>28&#45;&gt;29</title>
<path fill="none" stroke="#e05050" stroke-width="5" d="M1086.14,-1763.83C1100.7,-1803.93 1136.03,-1884.29 1159.75,-1932.06"/>
<polygon fill="#e05050" stroke="#e05050" stroke-width="5" points="1155.92,-1934.19 1164.33,-1941.15 1163.74,-1930.25 1155.92,-1934.19"/>
</g>
<!-- 31 -->
<g id="node9" class="node">
<title>31</title>
<ellipse fill="#101010" stroke="black" cx="1361.84" cy="-2072.7" rx="25" ry="25"/>
<text text-anchor="middle" x="1361.84" y="-2069" font-family="Times,serif" font-size="14.00">31</text>
</g>
<!-- 31&#45;&gt;29 -->
<g id="edge50" class="edge">
<title>31&#45;&gt;29</title>
<path fill="none" stroke="#101010" stroke-width="5" d="M1342.82,-2056.58C1314.55,-2037.55 1260.88,-2006.46 1223.44,-1987.11"/>
<polygon fill="#101010" stroke="#101010" stroke-width="5" points="1225.19,-1983.09 1214.29,-1982.46 1221.22,-1990.89 1225.19,-1983.09"/>
</g>
<!-- 30 -->
<g id="node42" class="node">
<title>30</title>
<ellipse fill="#0097f1" stroke="black" cx="1489.96" cy="-1816.46" rx="34" ry="34"/>
<text text-anchor="middle" x="1489.96" y="-1812.76" font-family="Times,serif" font-size="14.00">30</text>
</g>
<!-- 31&#45;&gt;30 -->
<g id="edge75" class="edge">
<title>31&#45;&gt;30</title>
<path fill="none" stroke="#e05050" stroke-width="5" d="M1376.58,-2052.2C1401.26,-2010.16 1449.93,-1913.58 1474.84,-1857.94"/>
<polygon fill="#e05050" stroke="#e05050" stroke-width="5" points="1478.87,-1859.63 1478.91,-1848.72 1470.87,-1856.1 1478.87,-1859.63"/>
</g>
<!-- 32 -->
<g id="node43" class="node">
<title>32</title>
<ellipse fill="#0097f1" stroke="black" cx="1771.83" cy="-2149.57" rx="57" ry="57"/>
<text text-anchor="middle" x="1771.83" y="-2145.87" font-family="Times,serif" font-size="14.00">32</text>
</g>
<!-- 31&#45;&gt;32 -->
<g id="edge52" class="edge">
<title>31&#45;&gt;32</title>
<path fill="none" stroke="#101010" stroke-width="5" d="M1385.33,-2080.56C1446.32,-2095.86 1611.44,-2127.4 1704.93,-2142.24"/>
<polygon fill="#101010" stroke="#101010" stroke-width="5" points="1704.3,-2146.56 1714.86,-2143.79 1705.65,-2137.92 1704.3,-2146.56"/>
</g>
<!-- 41 -->
<g id="node10" class="node">
<title>41</title>
<ellipse fill="#101010" stroke="black" cx="3309.29" cy="-1688.33" rx="25" ry="25"/>
<text text-anchor="middle" x="3309.29" y="-1684.63" font-family="Times,serif" font-size="14.00">41</text>
</g>
<!-- 40 -->
<g id="node15" class="node">
<title>40</title>
<ellipse fill="#0097f1" stroke="black" cx="3181.17" cy="-1560.21" rx="21.5" ry="21.5"/>
<text text-anchor="middle" x="3181.17" y="-1556.51" font-family="Times,serif" font-size="14.00">40</text>
</g>
<!-- 41&#45;&gt;40 -->
<g id="edge49" class="edge">
<title>41&#45;&gt;40</title>
<path fill="none" stroke="#101010" stroke-width="5" d="M3295.4,-1667.67C3274.23,-1643.04 3233.89,-1602.48 3207.2,-1578.8"/>
<polygon fill="#101010" stroke="#101010" stroke-width="5" points="3209.81,-1575.27 3199.39,-1572.02 3204.08,-1581.88 3209.81,-1575.27"/>
</g>
<!-- 35 -->
<g id="node24" class="node">
<title>35</title>
<ellipse fill="#0097f1" stroke="black" cx="3514.29" cy="-1355.22" rx="74.5" ry="74.5"/>
<text text-anchor="middle" x="3514.29" y="-1351.52" font-family="Times,serif" font-size="14.00">35</text>
</g>
<!-- 41&#45;&gt;35 -->
<g id="edge48" class="edge">
<title>41&#45;&gt;35</title>
<path fill="none" stroke="#101010" stroke-width="5" d="M3325.43,-1668.84C3357.51,-1623.19 3429.48,-1507.59 3474.79,-1430.22"/>
<polygon fill="#101010" stroke="#101010" stroke-width="5" points="3478.65,-1432.29 3479.91,-1421.45 3471.09,-1427.88 3478.65,-1432.29"/>
</g>
<!-- 41&#45;&gt;42 -->
<g id="edge66" class="edge">
<title>41&#45;&gt;42</title>
<path fill="none" stroke="#e05050" stroke-width="5" d="M3292.28,-1706.56C3265.47,-1741.36 3213.66,-1818.18 3182,-1869.27"/>
<polygon fill="#e05050" stroke="#e05050" stroke-width="5" points="3178.23,-1867.06 3176.72,-1877.87 3185.68,-1871.64 3178.23,-1867.06"/>
</g>
<!-- 39 -->
<g id="node11" class="node">
<title>39</title>
<ellipse fill="#101010" stroke="black" cx="3129.92" cy="-1457.72" rx="25" ry="25"/>
<text text-anchor="middle" x="3129.92" y="-1454.02" font-family="Times,serif" font-size="14.00">39</text>
</g>
<!-- 39&#45;&gt;40 -->
<g id="edge36" class="edge">
<title>39&#45;&gt;40</title>
<path fill="none" stroke="#101010" stroke-width="5" d="M3135.75,-1481.97C3142.24,-1497.88 3152.44,-1518.62 3161.63,-1534.77"/>
<polygon fill="#101010" stroke="#101010" stroke-width="5" points="3158.03,-1537.28 3166.89,-1543.67 3165.57,-1532.83 3158.03,-1537.28"/>
</g>
<!-- 38 -->
<g id="node17" class="node">
<title>38</title>
<ellipse fill="#0097f1" stroke="black" cx="2463.69" cy="-1508.96" rx="81" ry="81"/>
<text text-anchor="middle" x="2463.69" y="-1505.26" font-family="Times,serif" font-size="14.00">38</text>
</g>
<!-- 39&#45;&gt;38 -->
<g id="edge44" class="edge">
<title>39&#45;&gt;38</title>
<path fill="none" stroke="#101010" stroke-width="5" d="M3104.81,-1456.87C3015.33,-1459.24 2709.19,-1482.1 2554.59,-1497.14"/>
<polygon fill="#101010" stroke="#101010" stroke-width="5" points="2553.7,-1492.83 2544.17,-1498.16 2554.55,-1501.54 2553.7,-1492.83"/>
</g>
<!-- 37 -->
<g id="node20" class="node">
<title>37</title>
<ellipse fill="#0097f1" stroke="black" cx="2719.93" cy="-996.48" rx="87.5" ry="87.5"/>
<text text-anchor="middle" x="2719.93" y="-992.78" font-family="Times,serif" font-size="14.00">37</text>
</g>
<!-- 39&#45;&gt;37 -->
<g id="edge43" class="edge">
<title>39&#45;&gt;37</title>
<path fill="none" stroke="#101010" stroke-width="5" d="M3115.49,-1437.15C3063.97,-1372.76 2887.68,-1173.32 2788.69,-1066.17"/>
<polygon fill="#101010" stroke="#101010" stroke-width="5" points="2791.71,-1062.99 2781.7,-1058.62 2785.29,-1068.93 2791.71,-1062.99"/>
</g>
<!-- 36 -->
<g id="node22" class="node">
<title>36</title>
<ellipse fill="#0097f1" stroke="black" cx="3232.42" cy="-996.48" rx="102.5" ry="102.5"/>
<text text-anchor="middle" x="3232.42" y="-992.78" font-family="Times,serif" font-size="14.00">36</text>
</g>
<!-- 39&#45;&gt;36 -->
<g id="edge41" class="edge">
<title>39&#45;&gt;36</title>
<path fill="none" stroke="#101010" stroke-width="5" d="M3138.44,-1434.27C3155.19,-1375.18 3191.2,-1217.15 3213.62,-1108.06"/>
<polygon fill="#101010" stroke="#101010" stroke-width="5" points="3217.96,-1108.67 3215.68,-1097.99 3209.39,-1106.91 3217.96,-1108.67"/>
</g>
<!-- 5&#45;&gt;7 -->
<g id="edge25" class="edge">
<title>5&#45;&gt;7</title>
<path fill="none" stroke="#101010" stroke-width="5" d="M1130.62,-532.12C1133.83,-585.3 1142.54,-669.12 1149.61,-712.37"/>
<polygon fill="#101010" stroke="#101010" stroke-width="5" points="1145.34,-713.35 1151.37,-722.45 1153.96,-711.84 1145.34,-713.35"/>
</g>
<!-- 15&#45;&gt;17 -->
<g id="edge2" class="edge">
<title>15&#45;&gt;17</title>
<path fill="none" stroke="#101010" stroke-width="5" d="M274.33,-976.4C291.06,-1004.8 318.63,-1046.18 338.57,-1072.87"/>
<polygon fill="#101010" stroke="#101010" stroke-width="5" points="335.21,-1075.68 344.75,-1080.99 342.17,-1070.38 335.21,-1075.68"/>
</g>
<!-- 16&#45;&gt;17 -->
<g id="edge3" class="edge">
<title>16&#45;&gt;17</title>
<path fill="none" stroke="#101010" stroke-width="5" d="M106.34,-1232.75C171.42,-1202.95 281.34,-1147.68 333.45,-1118.26"/>
<polygon fill="#101010" stroke="#101010" stroke-width="5" points="335.69,-1122.02 342.19,-1113.25 331.34,-1114.43 335.69,-1122.02"/>
</g>
<!-- 40&#45;&gt;41 -->
<g id="edge46" class="edge">
<title>40&#45;&gt;41</title>
<path fill="none" stroke="#101010" stroke-width="5" d="M3192.92,-1578.36C3212.82,-1601.96 3253.22,-1642.8 3280.84,-1667.59"/>
<polygon fill="#101010" stroke="#101010" stroke-width="5" points="3278.21,-1671.1 3288.61,-1674.42 3283.99,-1664.53 3278.21,-1671.1"/>
</g>
<!-- 40&#45;&gt;39 -->
<g id="edge47" class="edge">
<title>40&#45;&gt;39</title>
<path fill="none" stroke="#101010" stroke-width="5" d="M3176.57,-1539.01C3170.52,-1523.63 3160.39,-1502.7 3151.02,-1485.91"/>
<polygon fill="#101010" stroke="#101010" stroke-width="5" points="3154.7,-1483.55 3145.92,-1477.07 3147.12,-1487.92 3154.7,-1483.55"/>
</g>
<!-- 6&#45;&gt;7 -->
<g id="edge26" class="edge">
<title>6&#45;&gt;7</title>
<path fill="none" stroke="#101010" stroke-width="5" d="M1330.39,-691.74C1290.1,-699.29 1220.98,-716.63 1183.27,-728.7"/>
<polygon fill="#101010" stroke="#101010" stroke-width="5" points="1181.62,-724.63 1173.52,-731.95 1184.39,-732.94 1181.62,-724.63"/>
</g>
<!-- 38&#45;&gt;39 -->
<g id="edge37" class="edge">
<title>38&#45;&gt;39</title>
<path fill="none" stroke="#101010" stroke-width="5" d="M2544.74,-1507.33C2691.04,-1499.37 2993.53,-1475.64 3095.5,-1463.59"/>
<polygon fill="#101010" stroke="#101010" stroke-width="5" points="3096.16,-1467.92 3105.56,-1462.35 3095.1,-1459.23 3096.16,-1467.92"/>
</g>
<!-- 26&#45;&gt;25 -->
<g id="edge17" class="edge">
<title>26&#45;&gt;25</title>
<path fill="none" stroke="#101010" stroke-width="5" d="M1085.27,-1584.33C1087.05,-1558.64 1087.2,-1519.98 1085.71,-1492.14"/>
<polygon fill="#101010" stroke="#101010" stroke-width="5" points="1090.07,-1491.74 1085.06,-1482.04 1081.34,-1492.31 1090.07,-1491.74"/>
</g>
<!-- 26&#45;&gt;28 -->
<g id="edge16" class="edge">
<title>26&#45;&gt;28</title>
<path fill="none" stroke="#101010" stroke-width="5" d="M1074.34,-1638.63C1073.02,-1657.99 1072.87,-1684.16 1073.9,-1705"/>
<polygon fill="#101010" stroke="#101010" stroke-width="5" points="1069.54,-1705.34 1074.53,-1715.05 1078.28,-1704.8 1069.54,-1705.34"/>
</g>
<!-- 27&#45;&gt;28 -->
<g id="edge35" class="edge">
<title>27&#45;&gt;28</title>
<path fill="none" stroke="#101010" stroke-width="5" d="M805.81,-1863.37C884,-1831.73 995.88,-1783.16 1049.31,-1757.15"/>
<polygon fill="#101010" stroke="#101010" stroke-width="5" points="1051.56,-1760.92 1058.59,-1752.56 1047.69,-1753.07 1051.56,-1760.92"/>
</g>
<!-- 37&#45;&gt;39 -->
<g id="edge38" class="edge">
<title>37&#45;&gt;39</title>
<path fill="none" stroke="#101010" stroke-width="5" d="M2774.59,-1065.32C2864.15,-1170.48 3038.61,-1365.96 3104.22,-1433.83"/>
<polygon fill="#101010" stroke="#101010" stroke-width="5" points="3101.2,-1436.99 3111.31,-1441.09 3107.46,-1430.88 3101.2,-1436.99"/>
</g>
<!-- 44&#45;&gt;43 -->
<g id="edge58" class="edge">
<title>44&#45;&gt;43</title>
<path fill="none" stroke="#101010" stroke-width="5" d="M3067.66,-2339.13C3049.64,-2287.58 3014.63,-2200.38 2993.37,-2154.39"/>
<polygon fill="#101010" stroke="#101010" stroke-width="5" points="2997.28,-2152.42 2989.05,-2145.24 2989.36,-2156.15 2997.28,-2152.42"/>
</g>
<!-- 36&#45;&gt;39 -->
<g id="edge39" class="edge">
<title>36&#45;&gt;39</title>
<path fill="none" stroke="#101010" stroke-width="5" d="M3204.64,-1095.33C3179.81,-1198.24 3145.89,-1353.83 3133.85,-1422.75"/>
<polygon fill="#101010" stroke="#101010" stroke-width="5" points="3129.53,-1422.07 3132.17,-1432.66 3138.16,-1423.53 3129.53,-1422.07"/>
</g>
<!-- 2&#45;&gt;3 -->
<g id="edge20" class="edge">
<title>2&#45;&gt;3</title>
<path fill="none" stroke="#101010" stroke-width="5" d="M1544.49,-842.42C1552.96,-908.12 1571.96,-1020.05 1583.74,-1071.56"/>
<polygon fill="#101010" stroke="#101010" stroke-width="5" points="1579.56,-1072.89 1586.14,-1081.6 1588.07,-1070.85 1579.56,-1072.89"/>
</g>
<!-- 35&#45;&gt;41 -->
<g id="edge40" class="edge">
<title>35&#45;&gt;41</title>
<path fill="none" stroke="#101010" stroke-width="5" d="M3470.62,-1415.81C3424.55,-1486.61 3354.66,-1601.05 3324.18,-1656.39"/>
<polygon fill="#101010" stroke="#101010" stroke-width="5" points="3320.23,-1654.5 3319.3,-1665.38 3327.92,-1658.68 3320.23,-1654.5"/>
</g>
<!-- 0 -->
<g id="node25" class="node">
<title>0</title>
<ellipse fill="#0097f1" stroke="black" cx="1797.46" cy="-432.74" rx="100.5" ry="100.5"/>
<text text-anchor="middle" x="1797.46" y="-429.04" font-family="Times,serif" font-size="14.00">0</text>
</g>
<!-- 0&#45;&gt;1 -->
<g id="edge59" class="edge">
<title>0&#45;&gt;1</title>
<path fill="none" stroke="#e05050" stroke-width="5" d="M1778.65,-531.51C1758.78,-659.26 1729.9,-875.44 1721.96,-960.53"/>
<polygon fill="#e05050" stroke="#e05050" stroke-width="5" points="1717.58,-960.37 1721.05,-970.71 1726.3,-961.14 1717.58,-960.37"/>
</g>
<!-- 4&#45;&gt;3 -->
<g id="edge24" class="edge">
<title>4&#45;&gt;3</title>
<path fill="none" stroke="#101010" stroke-width="5" d="M1485.47,-1190.81C1510.13,-1174.12 1550.35,-1142.1 1573.88,-1120.53"/>
<polygon fill="#101010" stroke="#101010" stroke-width="5" points="1576.89,-1123.7 1581.17,-1113.66 1570.89,-1117.34 1576.89,-1123.7"/>
</g>
<!-- 4&#45;&gt;24 -->
<g id="edge67" class="edge">
<title>4&#45;&gt;24</title>
<path fill="none" stroke="#e05050" stroke-width="5" d="M1443.34,-1212.12C1405.21,-1236.59 1325.05,-1296.41 1284.25,-1330.55"/>
<polygon fill="#e05050" stroke="#e05050" stroke-width="5" points="1281.19,-1327.4 1276.4,-1337.21 1286.85,-1334.07 1281.19,-1327.4"/>
</g>
<!-- 42&#45;&gt;43 -->
<g id="edge51" class="edge">
<title>42&#45;&gt;43</title>
<path fill="none" stroke="#101010" stroke-width="5" d="M3121.19,-1950.29C3083.95,-1989.52 3025.95,-2056.06 2995.76,-2094.42"/>
<polygon fill="#101010" stroke="#101010" stroke-width="5" points="2992.08,-2092.03 2989.41,-2102.62 2998.99,-2097.39 2992.08,-2092.03"/>
</g>
<!-- 42&#45;&gt;41 -->
<g id="edge65" class="edge">
<title>42&#45;&gt;41</title>
<path fill="none" stroke="#e05050" stroke-width="5" d="M3185.23,-1883.74C3217.71,-1839.11 3268.3,-1762.93 3293.77,-1720.03"/>
<polygon fill="#e05050" stroke="#e05050" stroke-width="5" points="3297.69,-1722 3298.95,-1711.15 3290.13,-1717.58 3297.69,-1722"/>
</g>
<!-- 8&#45;&gt;7 -->
<g id="edge30" class="edge">
<title>8&#45;&gt;7</title>
<path fill="none" stroke="#101010" stroke-width="5" d="M1116.43,-853.86C1127.28,-833.24 1142.87,-795.11 1151.47,-768.72"/>
<polygon fill="#101010" stroke="#101010" stroke-width="5" points="1155.73,-769.75 1154.49,-758.9 1147.37,-767.17 1155.73,-769.75"/>
</g>
<!-- 8&#45;&gt;9 -->
<g id="edge64" class="edge">
<title>8&#45;&gt;9</title>
<path fill="none" stroke="#e05050" stroke-width="5" d="M1094.89,-882.98C1078.53,-912.89 1048.9,-981.31 1035.29,-1019.93"/>
<polygon fill="#e05050" stroke="#e05050" stroke-width="5" points="1031.11,-1018.64 1032.05,-1029.52 1039.4,-1021.45 1031.11,-1018.64"/>
</g>
<!-- 9&#45;&gt;13 -->
<g id="edge31" class="edge">
<title>9&#45;&gt;13</title>
<path fill="none" stroke="#101010" stroke-width="5" d="M1012.16,-1055.97C1007.34,-1059.9 1002.04,-1064.79 997.06,-1069.85"/>
<polygon fill="#101010" stroke="#101010" stroke-width="5" points="993.72,-1067.02 990.08,-1077.31 1000.11,-1073 993.72,-1067.02"/>
</g>
<!-- 9&#45;&gt;8 -->
<g id="edge62" class="edge">
<title>9&#45;&gt;8</title>
<path fill="none" stroke="#e05050" stroke-width="5" d="M1039.77,-1032.48C1056.27,-1002.13 1085.78,-933.89 1099.21,-895.63"/>
<polygon fill="#e05050" stroke="#e05050" stroke-width="5" points="1103.36,-897.02 1102.41,-886.14 1095.07,-894.22 1103.36,-897.02"/>
</g>
<!-- 10 -->
<g id="node30" class="node">
<title>10</title>
<ellipse fill="#0097f1" stroke="black" cx="259.99" cy="-74" rx="74" ry="74"/>
<text text-anchor="middle" x="259.99" y="-70.3" font-family="Times,serif" font-size="14.00">10</text>
</g>
<!-- 11 -->
<g id="node32" class="node">
<title>11</title>
<ellipse fill="#0097f1" stroke="black" cx="464.99" cy="-637.74" rx="23.44" ry="23.44"/>
<text text-anchor="middle" x="464.99" y="-634.04" font-family="Times,serif" font-size="14.00">11</text>
</g>
<!-- 10&#45;&gt;11 -->
<g id="edge61" class="edge">
<title>10&#45;&gt;11</title>
<path fill="none" stroke="#e05050" stroke-width="5" d="M280.99,-145.27C322.78,-269.62 414.73,-521.18 450.56,-607.71"/>
<polygon fill="#e05050" stroke="#e05050" stroke-width="5" points="446.54,-609.44 454.44,-616.96 454.6,-606.05 446.54,-609.44"/>
</g>
<!-- 1&#45;&gt;3 -->
<g id="edge19" class="edge">
<title>1&#45;&gt;3</title>
<path fill="none" stroke="#101010" stroke-width="5" d="M1697.7,-1008.33C1672.96,-1025.29 1634.14,-1056.26 1611.15,-1077.32"/>
<polygon fill="#101010" stroke="#101010" stroke-width="5" points="1608,-1074.27 1603.73,-1084.31 1614.01,-1080.64 1608,-1074.27"/>
</g>
<!-- 1&#45;&gt;0 -->
<g id="edge63" class="edge">
<title>1&#45;&gt;0</title>
<path fill="none" stroke="#e05050" stroke-width="5" d="M1727.02,-971.57C1741.04,-897.95 1771.84,-678.14 1787.93,-543.09"/>
<polygon fill="#e05050" stroke="#e05050" stroke-width="5" points="1792.28,-543.56 1789.11,-533.12 1783.59,-542.53 1792.28,-543.56"/>
</g>
<!-- 11&#45;&gt;10 -->
<g id="edge79" class="edge">
<title>11&#45;&gt;10</title>
<path fill="none" stroke="#e05050" stroke-width="5" d="M459.72,-615.02C436.3,-537.6 343.99,-281.77 293.38,-151.57"/>
<polygon fill="#e05050" stroke="#e05050" stroke-width="5" points="297.37,-149.76 289.66,-142.03 289.22,-152.94 297.37,-149.76"/>
</g>
<!-- 11&#45;&gt;12 -->
<g id="edge60" class="edge">
<title>11&#45;&gt;12</title>
<path fill="none" stroke="#e05050" stroke-width="5" d="M480.69,-655.21C525.28,-697.44 653.56,-805.02 724.3,-860.26"/>
<polygon fill="#e05050" stroke="#e05050" stroke-width="5" points="721.63,-863.73 732.21,-866.41 727,-856.82 721.63,-863.73"/>
</g>
<!-- 12&#45;&gt;13 -->
<g id="edge32" class="edge">
<title>12&#45;&gt;13</title>
<path fill="none" stroke="#101010" stroke-width="5" d="M803.12,-931.96C842.81,-974.85 911.25,-1043.01 949.57,-1077.54"/>
<polygon fill="#101010" stroke="#101010" stroke-width="5" points="946.88,-1081.01 957.26,-1084.38 952.69,-1074.47 946.88,-1081.01"/>
</g>
<!-- 12&#45;&gt;11 -->
<g id="edge88" class="edge">
<title>12&#45;&gt;11</title>
<path fill="none" stroke="#e05050" stroke-width="5" d="M738.03,-859.28C676.66,-804.15 549.76,-698.68 493.19,-656.1"/>
<polygon fill="#e05050" stroke="#e05050" stroke-width="5" points="495.69,-652.51 485.06,-650.06 490.48,-659.53 495.69,-652.51"/>
</g>
<!-- 14&#45;&gt;13 -->
<g id="edge86" class="edge">
<title>14&#45;&gt;13</title>
<path fill="none" stroke="#e05050" stroke-width="5" d="M963.34,-1179.36C967.75,-1166.07 972.24,-1148.88 975.33,-1133.8"/>
<polygon fill="#e05050" stroke="#e05050" stroke-width="5" points="979.67,-1134.42 977.23,-1123.78 971.07,-1132.79 979.67,-1134.42"/>
</g>
<!-- 14&#45;&gt;22 -->
<g id="edge10" class="edge">
<title>14&#45;&gt;22</title>
<path fill="none" stroke="#101010" stroke-width="5" d="M935.94,-1220.69C927.56,-1234.67 917.71,-1253.93 910.4,-1270.42"/>
<polygon fill="#101010" stroke="#101010" stroke-width="5" points="906.32,-1268.83 906.42,-1279.74 914.37,-1272.26 906.32,-1268.83"/>
</g>
<!-- 18&#45;&gt;17 -->
<g id="edge7" class="edge">
<title>18&#45;&gt;17</title>
<path fill="none" stroke="#101010" stroke-width="5" d="M453.37,-1182.84C438.23,-1164.81 411.57,-1137.73 390.97,-1119.19"/>
<polygon fill="#101010" stroke="#101010" stroke-width="5" points="393.81,-1115.86 383.41,-1112.54 388.03,-1122.43 393.81,-1115.86"/>
</g>
<!-- 19 -->
<g id="node36" class="node">
<title>19</title>
<ellipse fill="#0097f1" stroke="black" cx="593.11" cy="-1278.34" rx="25" ry="25"/>
<text text-anchor="middle" x="593.11" y="-1274.64" font-family="Times,serif" font-size="14.00">19</text>
</g>
<!-- 18&#45;&gt;19 -->
<g id="edge82" class="edge">
<title>18&#45;&gt;19</title>
<path fill="none" stroke="#e05050" stroke-width="5" d="M480.83,-1216.69C500.69,-1231.08 535.1,-1252.07 560.63,-1265.61"/>
<polygon fill="#e05050" stroke="#e05050" stroke-width="5" points="558.7,-1269.53 569.59,-1270.23 562.71,-1261.76 558.7,-1269.53"/>
</g>
<!-- 19&#45;&gt;18 -->
<g id="edge80" class="edge">
<title>19&#45;&gt;18</title>
<path fill="none" stroke="#e05050" stroke-width="5" d="M574.89,-1261.41C554.02,-1246.6 519.64,-1225.78 494.86,-1212.84"/>
<polygon fill="#e05050" stroke="#e05050" stroke-width="5" points="496.78,-1208.9 485.88,-1208.29 492.82,-1216.71 496.78,-1208.9"/>
</g>
<!-- 20 -->
<g id="node37" class="node">
<title>20</title>
<ellipse fill="#0097f1" stroke="black" cx="669.98" cy="-1278.34" rx="25" ry="25"/>
<text text-anchor="middle" x="669.98" y="-1274.64" font-family="Times,serif" font-size="14.00">20</text>
</g>
<!-- 19&#45;&gt;20 -->
<g id="edge81" class="edge">
<title>19&#45;&gt;20</title>
<path fill="none" stroke="#e05050" stroke-width="5" d="M617.43,-1284.67C623.24,-1285.04 629.54,-1285.16 635.7,-1285.06"/>
<polygon fill="#e05050" stroke="#e05050" stroke-width="5" points="636,-1289.43 645.82,-1284.66 635.66,-1280.68 636,-1289.43"/>
</g>
<!-- 20&#45;&gt;19 -->
<g id="edge78" class="edge">
<title>20&#45;&gt;19</title>
<path fill="none" stroke="#e05050" stroke-width="5" d="M645.66,-1272.02C639.86,-1271.65 633.55,-1271.53 627.39,-1271.63"/>
<polygon fill="#e05050" stroke="#e05050" stroke-width="5" points="627.1,-1267.26 617.28,-1272.03 627.44,-1276.01 627.1,-1267.26"/>
</g>
<!-- 20&#45;&gt;21 -->
<g id="edge68" class="edge">
<title>20&#45;&gt;21</title>
<path fill="none" stroke="#e05050" stroke-width="5" d="M692.82,-1287.9C714.77,-1293.76 748.25,-1300.18 773.53,-1303.51"/>
<polygon fill="#e05050" stroke="#e05050" stroke-width="5" points="773.01,-1307.86 783.46,-1304.7 774.05,-1299.17 773.01,-1307.86"/>
</g>
<!-- 21&#45;&gt;22 -->
<g id="edge8" class="edge">
<title>21&#45;&gt;22</title>
<path fill="none" stroke="#101010" stroke-width="5" d="M832.59,-1309.99C842.87,-1310.73 855.03,-1310.91 866.21,-1310.52"/>
<polygon fill="#101010" stroke="#101010" stroke-width="5" points="866.77,-1314.87 876.53,-1309.98 866.31,-1306.13 866.77,-1314.87"/>
</g>
<!-- 21&#45;&gt;20 -->
<g id="edge76" class="edge">
<title>21&#45;&gt;20</title>
<path fill="none" stroke="#e05050" stroke-width="5" d="M785.52,-1294.41C763.57,-1288.55 730.09,-1282.13 704.81,-1278.8"/>
<polygon fill="#e05050" stroke="#e05050" stroke-width="5" points="705.33,-1274.46 694.88,-1277.61 704.29,-1283.15 705.33,-1274.46"/>
</g>
<!-- 23&#45;&gt;22 -->
<g id="edge12" class="edge">
<title>23&#45;&gt;22</title>
<path fill="none" stroke="#101010" stroke-width="5" d="M960.62,-1336.74C952.38,-1330.35 942.22,-1323.37 932.61,-1317.44"/>
<polygon fill="#101010" stroke="#101010" stroke-width="5" points="934.83,-1313.68 924,-1312.34 930.37,-1321.21 934.83,-1313.68"/>
</g>
<!-- 23&#45;&gt;25 -->
<g id="edge74" class="edge">
<title>23&#45;&gt;25</title>
<path fill="none" stroke="#e05050" stroke-width="5" d="M991.18,-1376.29C1006.63,-1394.32 1031.95,-1419.93 1051.66,-1437.65"/>
<polygon fill="#e05050" stroke="#e05050" stroke-width="5" points="1048.77,-1440.94 1059.17,-1444.25 1054.55,-1434.37 1048.77,-1440.94"/>
</g>
<!-- 24&#45;&gt;25 -->
<g id="edge13" class="edge">
<title>24&#45;&gt;25</title>
<path fill="none" stroke="#101010" stroke-width="5" d="M1236.17,-1363.25C1203.13,-1378.99 1142.7,-1413.27 1107.45,-1436.03"/>
<polygon fill="#101010" stroke="#101010" stroke-width="5" points="1105.01,-1432.4 1099.06,-1441.56 1109.82,-1439.71 1105.01,-1432.4"/>
</g>
<!-- 24&#45;&gt;4 -->
<g id="edge71" class="edge">
<title>24&#45;&gt;4</title>
<path fill="none" stroke="#e05050" stroke-width="5" d="M1281.51,-1343.82C1320.39,-1318.7 1400.31,-1258.99 1440.4,-1225.34"/>
<polygon fill="#e05050" stroke="#e05050" stroke-width="5" points="1443.32,-1228.59 1448.09,-1218.77 1437.64,-1221.94 1443.32,-1228.59"/>
</g>
<!-- 29&#45;&gt;28 -->
<g id="edge72" class="edge">
<title>29&#45;&gt;28</title>
<path fill="none" stroke="#e05050" stroke-width="5" d="M1173.02,-1937.16C1155.9,-1892.21 1120.49,-1812.52 1098.48,-1769.34"/>
<polygon fill="#e05050" stroke="#e05050" stroke-width="5" points="1102.22,-1767.06 1093.73,-1760.2 1094.46,-1771.09 1102.22,-1767.06"/>
</g>
<!-- 29&#45;&gt;31 -->
<g id="edge57" class="edge">
<title>29&#45;&gt;31</title>
<path fill="none" stroke="#101010" stroke-width="5" d="M1209.14,-1991.36C1241.11,-2012.08 1294.61,-2042.68 1329.07,-2059.97"/>
<polygon fill="#101010" stroke="#101010" stroke-width="5" points="1327.35,-2063.99 1338.25,-2064.47 1331.2,-2056.14 1327.35,-2063.99"/>
</g>
<!-- 30&#45;&gt;31 -->
<g id="edge73" class="edge">
<title>30&#45;&gt;31</title>
<path fill="none" stroke="#e05050" stroke-width="5" d="M1470.69,-1844.82C1443.55,-1892.59 1395.46,-1988.74 1373.28,-2039.54"/>
<polygon fill="#e05050" stroke="#e05050" stroke-width="5" points="1369.24,-2037.86 1369.33,-2048.77 1377.29,-2041.3 1369.24,-2037.86"/>
</g>
<!-- 32&#45;&gt;31 -->
<g id="edge45" class="edge">
<title>32&#45;&gt;31</title>
<path fill="none" stroke="#101010" stroke-width="5" d="M1716.57,-2134.31C1630.94,-2115.37 1468.64,-2085.23 1397.15,-2075.29"/>
<polygon fill="#101010" stroke="#101010" stroke-width="5" points="1397.37,-2070.91 1386.88,-2073.92 1396.22,-2079.58 1397.37,-2070.91"/>
</g>
<!-- 33 -->
<g id="node44" class="node">
<title>33</title>
<ellipse fill="#0097f1" stroke="black" cx="2156.2" cy="-2226.45" rx="25" ry="25"/>
<text text-anchor="middle" x="2156.2" y="-2222.75" font-family="Times,serif" font-size="14.00">33</text>
</g>
<!-- 32&#45;&gt;33 -->
<g id="edge77" class="edge">
<title>32&#45;&gt;33</title>
<path fill="none" stroke="#e05050" stroke-width="5" d="M1826.76,-2165.58C1907.06,-2184.39 2054.23,-2213.53 2121.27,-2223.59"/>
<polygon fill="#e05050" stroke="#e05050" stroke-width="5" points="2120.8,-2227.94 2131.32,-2225.04 2122.04,-2219.28 2120.8,-2227.94"/>
</g>
<!-- 33&#45;&gt;32 -->
<g id="edge84" class="edge">
<title>33&#45;&gt;32</title>
<path fill="none" stroke="#e05050" stroke-width="5" d="M2132.84,-2218.22C2075.54,-2203.03 1926.34,-2172.59 1838.72,-2157.61"/>
<polygon fill="#e05050" stroke="#e05050" stroke-width="5" points="1839.2,-2153.26 1828.61,-2155.91 1837.75,-2161.88 1839.2,-2153.26"/>
</g>
<!-- 33&#45;&gt;34 -->
<g id="edge83" class="edge">
<title>33&#45;&gt;34</title>
<path fill="none" stroke="#e05050" stroke-width="5" d="M2181.07,-2228.32C2254.42,-2228.75 2472.1,-2218.51 2590.26,-2209.78"/>
<polygon fill="#e05050" stroke="#e05050" stroke-width="5" points="2590.69,-2214.13 2600.33,-2209.02 2590.03,-2205.41 2590.69,-2214.13"/>
</g>
<!-- 34&#45;&gt;43 -->
<g id="edge42" class="edge">
<title>34&#45;&gt;43</title>
<path fill="none" stroke="#101010" stroke-width="5" d="M2736.4,-2189.73C2800.62,-2175.51 2894.37,-2151.65 2943.45,-2136.68"/>
<polygon fill="#101010" stroke="#101010" stroke-width="5" points="2944.98,-2140.79 2953.22,-2133.63 2942.37,-2132.44 2944.98,-2140.79"/>
</g>
<!-- 34&#45;&gt;33 -->
<g id="edge85" class="edge">
<title>34&#45;&gt;33</title>
<path fill="none" stroke="#e05050" stroke-width="5" d="M2600.13,-2199.48C2489.17,-2202.03 2274.25,-2213.17 2190.64,-2221.11"/>
<polygon fill="#e05050" stroke="#e05050" stroke-width="5" points="2190.17,-2216.76 2180.65,-2222.12 2191.04,-2225.47 2190.17,-2216.76"/>
</g>
</g>
</svg>
